<svg xmlns="http://www.w3.org/2000/svg" version="1.1" xmlns:xlink="http://www.w3.org/1999/xlink" xmlns:svgjs="http://svgjs.dev/svgjs" viewBox="0 0 800 400"><path d="M47.085201263427734,294.17041015625C72.19730885823567,258.2959696451823,83.25859451293945,195.21674601236978,122.42152404785156,186.54708862304688C161.58445358276367,177.87743123372397,132.58594767252603,282.81017049153644,164.57398986816406,268.16143798828125C196.5620320638021,253.51270548502603,183.70702616373697,155.75485229492188,218.38565063476562,142.60089111328125C253.06427510579428,129.44692993164062,225.85948689778647,245.44095865885416,268.60986328125,228.69955444335938C311.36023966471356,211.9581502278646,288.34081013997394,101.64424133300781,346.63677978515625,92.37667846679688C404.93274943033856,83.10911560058594,372.94471232096356,210.1644287109375,443.4977722167969,200.89686584472656C514.0508321126302,191.62930297851562,476.3826599121094,77.72795104980469,558.2959594726562,64.57398986816406C640.2092590332031,51.42002868652344,616.5919392903646,181.76383097966513,689.2376708984375,161.4349822998047C761.8834025065104,141.10613361994425,747.2346598307291,56.20328998565674,776.233154296875,3.5874438285827637" fill="none" stroke-width="33" stroke="url(&quot;#SvgjsLinearGradient1001&quot;)" stroke-linecap="round" transform="matrix(1,0,0,1,-11.659175872802734,51.1210675239563)" stroke-dasharray="0 0" stroke-opacity="1"></path><defs><linearGradient id="SvgjsLinearGradient1001" gradientTransform="rotate(34, 0.5, 0.5)"><stop stop-color="hsl(162, 100%, 58%)" offset="0"></stop><stop stop-color="hsl(270, 73%, 53%)" offset="1"></stop></linearGradient></defs></svg>